<svg xmlns="http://www.w3.org/2000/svg" aria-hidden="true" style="position:absolute;width:0;height:0;overflow:hidden">
  <defs>
    <symbol id="icon-hamburger" viewBox="0 0 64 64">
      <path stroke-linecap="round" stroke-linejoin="round" stroke-width="6" d="M2.695 50.086h59.077M2.695 31.471h59.077M2.695 12.855h59.077"/>
    </symbol>
    <symbol id="icon-email" viewBox="0 0 64 64">
      <path d="M48 16H16c-2.2 0-3.98 1.8-3.98 4L12 44c0 2.2 1.8 4 4 4h32c2.2 0 4-1.8 4-4V20c0-2.2-1.8-4-4-4zm-.8 8.5-14.14 8.84c-.64.4-1.48.4-2.12 0L16.8 24.5c-.5-.32-.8-.86-.8-1.44 0-1.34 1.46-2.14 2.6-1.44L32 30l13.4-8.38c1.14-.7 2.6.1 2.6 1.44 0 .58-.3 1.12-.8 1.44z"/>
    </symbol>
    <symbol id="icon-phone" viewBox="0 0 64 64">
      <path d="m47.27 36.974-4.902-.56a3.842 3.842 0 0 0-3.165 1.1l-3.551 3.551a29.039 29.039 0 0 1-12.717-12.717l3.57-3.57a3.842 3.842 0 0 0 1.1-3.165l-.56-4.863a3.863 3.863 0 0 0-3.84-3.416h-3.339c-2.181 0-3.995 1.814-3.86 3.995 1.023 16.481 14.203 29.642 30.665 30.665 2.181.135 3.995-1.679 3.995-3.859v-3.339c.019-1.949-1.447-3.589-3.396-3.821z"/>
    </symbol>
    <symbol id="icon-person" viewBox="-10 -10 84 84">
      <path d="M32 32c5.893 0 10.667-4.773 10.667-10.667S37.894 10.666 32 10.666c-5.893 0-10.667 4.773-10.667 10.667S26.106 32 32 32zm0 5.333c-7.12 0-21.333 3.573-21.333 10.667v2.667c0 1.467 1.2 2.667 2.667 2.667h37.333c1.467 0 2.667-1.2 2.667-2.667V48c0-7.093-14.213-10.667-21.333-10.667z"/>
    </symbol>
    <symbol id="icon-send" viewBox="0 0 64 64">
      <path d="m64 5.333-64 30 20.453 6.313L52 17 28.005 43.977l.019.006-.024-.006v14.69l11.47-11.151L54 52.001 64 5.334z"/>
    </symbol>
    <symbol id="icon-close" viewBox="0 0 64 64">
      <path d="M64 6.446 57.554 0 32 25.554 6.446 0 0 6.446 25.554 32 0 57.554 6.446 64 32 38.446 57.554 64 64 57.554 38.446 32 64 6.446z"/>
    </symbol>
    <symbol id="icon-company-1" viewBox="0 0 64 64">
      <path d="M28.448 3.612h-.168c-.258-.016-.517-.022-.775-.028h-.56c-.489 0-.987.013-1.482.038a.698.698 0 0 0-.112 0 34.794 34.794 0 0 0-12.943 3.302l-.532.257v27.251l1.245-.422a47.12 47.12 0 0 1 3.462-1.027 42.25 42.25 0 0 1 9.963-1.324v3.58a29.65 29.65 0 0 0-1.311.038h-.103a39.83 39.83 0 0 0-7.666 1.177 38.91 38.91 0 0 0-9.132 3.559V5.063a36.617 36.617 0 0 1 9.58-3.897A36.63 36.63 0 0 1 26.943.002h.526a36.16 36.16 0 0 1 1.818.088 25.93 25.93 0 0 1 4.499.717v3.524a27.786 27.786 0 0 0-4.448-.665 10.737 10.737 0 0 0-.891-.052zm6.202 3.602c.781.059 1.591.088 2.41.088a38.733 38.733 0 0 0 9.493-1.218 39.088 39.088 0 0 0 9.129-3.562v34.327a36.706 36.706 0 0 1-9.583 3.897 36.825 36.825 0 0 1-9.029 1.161 27.596 27.596 0 0 1-6.85-.807V6.551c.529.122 1.074.235 1.628.329.909.153 1.868.266 2.802.335zm17.47.266-1.245.419a55.097 55.097 0 0 1-3.462 1.036 42.142 42.142 0 0 1-10.346 1.327c-.813 0-1.56-.022-2.282-.069l-.993-.066V38.16l.853.075c.791.069 1.607.103 2.429.103a33.093 33.093 0 0 0 8.148-1.055 34.152 34.152 0 0 0 6.367-2.288l.532-.257V7.478zM10.753 51.954a1.824 1.824 0 0 0-1.386-.56 2.05 2.05 0 0 0-.8.15 1.793 1.793 0 0 0-1.025 1.036 2.024 2.024 0 0 0-.143.773v4.67c-.011.329.052.656.184.958.11.239.269.453.467.626.187.157.406.27.641.332.227.064.462.096.697.097.26.003.517-.053.754-.163.233-.102.445-.249.623-.432.173-.181.312-.394.408-.626.1-.235.151-.489.149-.745v-.523h-1.22v.416c.004.142-.021.284-.072.416a.748.748 0 0 1-.178.263.88.88 0 0 1-.51.179.617.617 0 0 1-.573-.251 1.112 1.112 0 0 1-.162-.626V53.59a1.492 1.492 0 0 1 .149-.698.619.619 0 0 1 .598-.282.644.644 0 0 1 .545.263c.137.179.208.4.202.626v.404h1.208v-.476a2.215 2.215 0 0 0-.149-.817 1.916 1.916 0 0 0-.408-.657zM18.005 51.9a2.169 2.169 0 0 0-1.389-.513 2.16 2.16 0 0 0-.729.131 1.916 1.916 0 0 0-1.118 1.036 2.161 2.161 0 0 0-.177.904v4.479a2.17 2.17 0 0 0 .177.917c.11.241.272.454.473.626.187.173.406.307.645.394.233.086.48.13.729.131.249-.001.495-.045.729-.131.243-.088.467-.222.66-.394a1.91 1.91 0 0 0 .461-.626c.125-.289.186-.602.177-.917v-4.479a2.19 2.19 0 0 0-.177-.904 2.018 2.018 0 0 0-.461-.654zm-.57 6.038a.797.797 0 0 1-.243.648.893.893 0 0 1-1.148 0 .805.805 0 0 1-.243-.648v-4.479a.797.797 0 0 1 .243-.648.893.893 0 0 1 1.148 0 .805.805 0 0 1 .243.648v4.479zM27.529 59.938V51.46h-1.174l-1.541 4.488h-.022l-1.554-4.488h-1.161v8.478h1.211V54.78h.022l1.186 3.646h.604l1.196-3.646h.022v5.158h1.211zM34.41 52.054a1.689 1.689 0 0 0-.685-.463 2.668 2.668 0 0 0-.878-.131h-1.8v8.478h1.208v-3.311h.623c.377.017.752-.063 1.09-.232.275-.153.504-.376.663-.648a2.02 2.02 0 0 0 .277-.739 6.1 6.1 0 0 0 .065-.964 4.834 4.834 0 0 0-.118-1.211 1.81 1.81 0 0 0-.445-.779zm-.623 2.585a1.055 1.055 0 0 1-.112.441.678.678 0 0 1-.311.297c-.179.08-.374.117-.57.106h-.551v-2.882h.623c.188-.009.374.027.545.106a.682.682 0 0 1 .283.313c.066.149.102.31.106.473v.563c0 .197.012.401 0 .582h-.012zM40.133 51.459h-.99l-1.868 8.478h1.208l.355-1.822h1.647l.355 1.822h1.208l-1.915-8.478zm-1.115 5.502.595-3.073h.022l.592 3.073h-1.208zM47.938 56.567h-.022l-1.825-5.108H44.93v8.478h1.208v-5.098h.025l1.846 5.098h1.136v-8.478h-1.208v5.108zM55.32 51.459l-.971 3.371h-.025l-.971-3.371h-1.28l1.659 4.895v3.584h1.208v-3.584l1.659-4.895h-1.28zM7.385 62.332h.582v1.634h.395v-1.634h.579v-.335H7.384v.335zM12.279 61.997l-.763 1.969h.42l.162-.447h.785l.168.447h.43l-.781-1.969h-.42zm-.062 1.189.268-.729.268.729h-.536zM17.117 63.239h.455v.254a.756.756 0 0 1-.467.166.496.496 0 0 1-.417-.188.823.823 0 0 1-.146-.513c0-.438.19-.657.567-.657.099-.01.199.016.28.074s.14.142.165.239l.389-.075c-.084-.385-.361-.579-.834-.579a.988.988 0 0 0-.688.254.963.963 0 0 0-.283.757c-.012.269.079.533.252.739a.946.946 0 0 0 .747.288c.308.009.607-.104.834-.313v-.776h-.853v.332zM22.059 61.997h-.398v1.969h1.379v-.335h-.981v-1.634zM26.237 61.997h-.398v1.969h.398v-1.969zM30.322 63.311l-.806-1.315h-.386v1.969h.37v-1.286l.791 1.286h.395v-1.969h-.364v1.315zM34.014 63.098h.981v-.335h-.981v-.432h1.056v-.335h-1.454v1.969h1.495v-.335h-1.096v-.532zM42.969 62.773h-.775v-.776h-.395v1.969h.395v-.861h.775v.861h.395v-1.969h-.395v.776zM46.683 63.098h.984v-.335h-.984v-.432h1.059v-.335h-1.454v1.969h1.491v-.335h-1.096v-.532zM51.721 63.099c.342-.053.517-.235.517-.548a.471.471 0 0 0-.193-.439 1.105 1.105 0 0 0-.576-.116h-.834v1.969h.395v-.823h.078a.533.533 0 0 1 .246.044.41.41 0 0 1 .14.144l.43.626h.473l-.24-.385a1.373 1.373 0 0 0-.436-.473zm-.399-.273h-.293v-.495h.311c.136-.011.272.005.402.047a.255.255 0 0 1 .086.205.258.258 0 0 1-.105.196c-.13.04-.266.056-.402.047zM55.52 63.098h.981v-.335h-.981v-.432h1.059v-.335h-1.457v1.969h1.494v-.335H55.52v-.532z"/>
    </symbol>
    <symbol id="icon-company-2" viewBox="0 0 64 64">
      <path d="M9.905 60.688c.023 0 .046.005.068.013s.041.02.057.035l.321.302c-.249.244-.557.44-.903.573a3.593 3.593 0 0 1-1.281.206 3.461 3.461 0 0 1-1.204-.192 2.647 2.647 0 0 1-.907-.542 2.415 2.415 0 0 1-.586-.837 2.753 2.753 0 0 1-.205-1.074 2.554 2.554 0 0 1 .221-1.077c.14-.312.352-.596.622-.837.274-.236.602-.422.964-.546a3.839 3.839 0 0 1 1.241-.192c.394-.008.786.051 1.152.175.318.118.61.282.863.484l-.269.322a.272.272 0 0 1-.068.058.183.183 0 0 1-.108.024.253.253 0 0 1-.116-.034l-.145-.086-.201-.11a2.311 2.311 0 0 0-.634-.192 2.832 2.832 0 0 0-.478-.034 2.65 2.65 0 0 0-.891.144 2.05 2.05 0 0 0-.699.405c-.2.187-.354.406-.454.645a2.143 2.143 0 0 0-.165.851c-.005.294.051.587.165.865a1.844 1.844 0 0 0 1.113 1.04c.262.093.543.139.827.137.164.002.328-.007.49-.028a1.961 1.961 0 0 0 1.06-.443.255.255 0 0 1 .153-.055zM19.18 59.171c.005.364-.069.726-.217 1.067-.131.309-.337.592-.605.828s-.591.422-.949.544a3.975 3.975 0 0 1-2.441 0 2.837 2.837 0 0 1-.944-.546 2.432 2.432 0 0 1-.61-.837 2.742 2.742 0 0 1 0-2.137c.137-.312.344-.597.61-.84.269-.228.59-.407.944-.525a3.903 3.903 0 0 1 2.441 0c.357.124.679.309.948.545.264.239.47.52.606.827.149.344.222.708.217 1.074zm-.843 0a2.23 2.23 0 0 0-.153-.858 1.751 1.751 0 0 0-.43-.641 1.91 1.91 0 0 0-.679-.405 2.864 2.864 0 0 0-1.775 0c-.259.09-.49.228-.679.405a1.73 1.73 0 0 0-.434.641 2.48 2.48 0 0 0 0 1.715c.091.237.238.456.434.642.188.175.42.312.679.401a2.938 2.938 0 0 0 1.775 0 1.92 1.92 0 0 0 .679-.401c.193-.187.339-.405.43-.642.108-.276.159-.566.153-.858zM25.508 60.071l.084.192c.032-.069.06-.13.092-.192.031-.064.065-.127.104-.189l2.052-3.187c.04-.055.076-.089.116-.099a.565.565 0 0 1 .169-.017h.606v5.183h-.719V57.79a1.322 1.322 0 0 1 0-.178l-2.064 3.231c-.026.048-.068.089-.121.118s-.114.044-.176.043h-.116c-.063.001-.124-.014-.177-.043s-.095-.07-.12-.119l-2.124-3.252v4.161h-.695v-5.173h.606a.565.565 0 0 1 .169.017c.05.021.089.056.112.099l2.096 3.19c.041.059.076.121.104.185zM33.229 59.813v1.941h-.803v-5.176h1.791c.338-.005.675.033 1 .113.26.063.501.173.707.322.178.14.316.314.401.508.095.211.141.436.136.662a1.43 1.43 0 0 1-.582 1.18 2.05 2.05 0 0 1-.711.343c-.313.085-.64.126-.968.12l-.972-.014zm0-.555h.972c.211.002.421-.024.622-.079.166-.048.319-.124.45-.223a.916.916 0 0 0 .273-.343.963.963 0 0 0 .096-.436c.009-.144-.018-.288-.08-.422s-.158-.255-.281-.354a1.745 1.745 0 0 0-1.08-.278h-.972v2.133zM44.021 61.762h-.635a.308.308 0 0 1-.177-.048.323.323 0 0 1-.104-.12l-.546-1.252h-2.742l-.566 1.252a.287.287 0 0 1-.1.117.304.304 0 0 1-.181.051h-.635l2.409-5.184h.835l2.441 5.184zm-3.975-1.925h2.265l-.956-2.11a3.483 3.483 0 0 1-.181-.487l-.092.271c-.028.082-.06.158-.088.219l-.948 2.106zM47.49 56.602a.337.337 0 0 1 .12.093l3.513 3.907V56.577h.719v5.184h-.401a.4.4 0 0 1-.165-.031.426.426 0 0 1-.128-.096l-3.509-3.904c.004.059.004.119 0 .178V61.761h-.719v-5.184h.426a.386.386 0 0 1 .144.024zM57.761 59.7v2.058h-.803V59.7l-2.22-3.122h.719a.296.296 0 0 1 .173.045c.044.033.08.073.108.117l1.389 2.014c.056.086.104.165.144.24s.072.148.1.22l.104-.223c.039-.082.085-.161.137-.237l1.369-2.027a.599.599 0 0 1 .104-.11.266.266 0 0 1 .173-.051h.727l-2.224 3.136zM25.11 47.879c.349.038.703.069 1.06.096 5.418-2.071 10.001-5.46 13.176-9.743s4.803-9.272 4.679-14.342l-5.97-5.101c1.214 5.398.646 10.977-1.64 16.115s-6.2 9.63-11.305 12.976z"/>
      <path d="m22.978 47.642.161.028c5.454-3.333 9.613-7.988 11.938-13.363s2.709-11.221 1.103-16.784l-8.504-7.266c3.44 5.972 4.824 12.656 3.992 19.274s-3.845 12.898-8.69 18.111zM51.818 29.88c-1.445 5.57-4.954 10.594-10.005 14.325a31.897 31.897 0 0 1-4.754 2.916c4.114-1.033 7.895-2.859 11.052-5.339s5.605-5.544 7.157-8.959l-3.449-2.943z"/>
      <path d="m50.465 29.059-4.91-4.195c-.094 4.783-1.685 9.458-4.609 13.538s-7.073 7.416-12.017 9.663h.024c1.102 0 2.202-.057 3.296-.168 4.62-1.611 8.702-4.175 11.88-7.461s5.355-7.195 6.336-11.375zM23.689 7.194l-5.858-5.012C12.594 3.911 8.09 6.951 4.909 10.903S.017 19.536 0 24.333c.02 5.3 2.108 10.444 5.934 14.616s9.171 7.135 15.19 8.42c5.373-5.593 8.518-12.504 8.98-19.728S28.319 13.254 23.69 7.195zM64 28.288c-.021-6.288-2.954-12.314-8.159-16.761S43.584 4.574 36.224 4.556a31.675 31.675 0 0 0-9.945 1.581l35.867 30.644a20.495 20.495 0 0 0 1.855-8.494z"/>
    </symbol>
    <symbol id="icon-company-3" viewBox="13 13 38 38">
      <path d="M9.964 25.918h-.002c-1.818 0-3.291 1.329-3.291 2.967v.002c0 1.639 1.474 2.967 3.291 2.967h.002c1.818 0 3.291-1.328 3.291-2.967v-.002c0-1.639-1.473-2.967-3.291-2.967zM34.256 24.97c-.005-2.276-1.01-4.458-2.795-6.067s-4.204-2.516-6.729-2.521c-2.525.004-4.946.91-6.732 2.52s-2.791 3.792-2.797 6.069v12.552s19.05-1.913 19.052-12.55v-.002zM0 41.641c.005 1.584.704 3.102 1.946 4.222s2.925 1.751 4.682 1.756c1.756-.005 3.439-.636 4.681-1.755s1.942-2.637 1.947-4.22V32.91S0 34.242 0 41.642zm6.628 1.565c-.343 0-.679-.092-.964-.264s-.508-.416-.639-.702-.166-.601-.099-.904c.067-.304.232-.582.475-.801s.552-.368.889-.428c.337-.06.686-.029 1.003.089s.588.319.779.576c.191.257.293.56.293.869.001.206-.043.41-.13.601s-.215.364-.376.51c-.161.146-.353.262-.564.341s-.437.12-.666.12v-.006zM18.75 40.392v3.25h-.67v-3.25h.67zm1.294 1.389v.522h-1.478v-.522h1.478zm.157-1.389v.525h-1.634v-.525h1.634zm3.058 1.549v.154c0 .247-.034.469-.101.665s-.161.364-.284.502a1.228 1.228 0 0 1-.438.315 1.392 1.392 0 0 1-.56.109c-.204 0-.391-.036-.56-.109a1.264 1.264 0 0 1-.438-.315 1.471 1.471 0 0 1-.288-.502 2.05 2.05 0 0 1-.101-.665v-.154c0-.249.034-.47.101-.665.067-.196.161-.364.283-.502.124-.138.269-.244.438-.317.17-.073.356-.109.56-.109.205 0 .392.036.56.109.17.073.315.179.438.317s.219.306.286.502c.068.195.103.417.103.665zm-.677.155v-.158c0-.173-.016-.324-.047-.455s-.077-.241-.138-.33a.601.601 0 0 0-.524-.27.636.636 0 0 0-.301.069.611.611 0 0 0-.221.201c-.06.089-.105.199-.136.33s-.047.283-.047.455v.158c0 .171.016.323.047.455.031.131.077.242.138.333.061.089.135.157.223.203s.188.069.301.069c.113 0 .214-.023.301-.069s.161-.114.221-.203c.06-.091.105-.202.136-.333.031-.132.047-.284.047-.455zm2.851.696a.425.425 0 0 0-.027-.156.295.295 0 0 0-.094-.13c-.046-.04-.111-.08-.194-.118s-.191-.079-.324-.121a4.161 4.161 0 0 1-.42-.161 1.688 1.688 0 0 1-.348-.208.924.924 0 0 1-.237-.279.763.763 0 0 1-.085-.368c0-.135.03-.258.089-.368a.842.842 0 0 1 .25-.286c.107-.08.234-.142.38-.185.147-.043.309-.065.484-.065.24 0 .449.043.627.129s.317.205.415.355c.1.15.149.322.149.516h-.665a.503.503 0 0 0-.06-.25.409.409 0 0 0-.179-.172.634.634 0 0 0-.299-.063.686.686 0 0 0-.29.054.386.386 0 0 0-.174.141.342.342 0 0 0-.058.196c0 .055.013.105.04.15.028.045.07.086.125.125s.123.075.203.109c.08.034.173.068.279.1.177.054.333.114.466.181.135.067.249.142.339.225s.159.178.205.283a.891.891 0 0 1 .069.359.781.781 0 0 1-.322.662c-.104.077-.228.136-.373.176s-.306.06-.484.06c-.161 0-.319-.021-.475-.063a1.449 1.449 0 0 1-.426-.194c-.127-.086-.228-.196-.304-.33s-.114-.292-.114-.475h.672c0 .101.016.187.047.257s.075.127.132.17a.585.585 0 0 0 .205.094c.08.019.168.029.263.029a.713.713 0 0 0 .286-.049.349.349 0 0 0 .223-.332zm2.578-2.4v3.25h-.667v-3.25h.667zm1 0v.525h-2.652v-.525h2.652zm2.562 2.728v.522h-1.73v-.522h1.73zm-1.511-2.728v3.25h-.67v-3.25h.67zm1.286 1.324v.509h-1.504v-.509h1.504zm.223-1.324v.525h-1.728v-.525h1.728zm.393 0h1.212c.248 0 .462.037.641.112.18.074.318.185.415.33s.145.325.145.538c0 .174-.03.324-.089.449a.842.842 0 0 1-.248.31c-.106.082-.23.147-.373.197l-.212.112h-1.054l-.005-.522h.783c.118 0 .215-.021.292-.063s.135-.1.174-.174a.538.538 0 0 0 .06-.259c0-.104-.019-.194-.058-.27s-.097-.134-.176-.174-.178-.06-.297-.06h-.542v2.725h-.67v-3.25zm1.817 3.25-.741-1.449.708-.005.75 1.422v.031h-.717zm3.516-1.158h-.828v-.522h.828a.67.67 0 0 0 .312-.063c.08-.043.139-.103.176-.179s.056-.161.056-.257c0-.097-.019-.187-.056-.27s-.096-.15-.176-.201-.185-.076-.312-.076h-.596v2.725h-.67v-3.25h1.266c.254 0 .472.046.654.138.183.091.323.216.42.377s.145.344.145.551c0 .21-.048.391-.145.545s-.237.272-.42.355c-.182.083-.4.125-.654.125zm3.861.636v.522h-1.73v-.522h1.73zm-1.511-2.728v3.25h-.67v-3.25h.67zm1.286 1.324v.509h-1.504v-.509h1.504zm.223-1.324v.525h-1.728v-.525h1.728zm1.891 0v3.25h-.667v-3.25h.667zm1 0v.525h-2.652v-.525h2.652zm2.562 2.728v.522h-1.73v-.522h1.73zm-1.511-2.728v3.25h-.67v-3.25h.67zm1.286 1.324v.509H44.88v-.509h1.504zm.223-1.324v.525h-1.728v-.525h1.728zm.393 0h1.212c.249 0 .462.037.641.112.18.074.318.185.415.33s.145.325.145.538c0 .174-.03.324-.089.449a.842.842 0 0 1-.248.31c-.106.082-.23.147-.373.197l-.212.112h-1.054l-.004-.522h.783c.118 0 .215-.021.292-.063s.135-.1.174-.174a.538.538 0 0 0 .06-.259c0-.104-.019-.194-.058-.27s-.097-.134-.176-.174a.654.654 0 0 0-.297-.06h-.542v2.725h-.67v-3.25zm1.817 3.25-.741-1.449.708-.005.75 1.422v.031h-.717zm2.803-.85a.425.425 0 0 0-.027-.156.295.295 0 0 0-.094-.13c-.046-.04-.111-.08-.194-.118s-.191-.079-.324-.121a4.161 4.161 0 0 1-.42-.161 1.688 1.688 0 0 1-.348-.208.924.924 0 0 1-.237-.279.763.763 0 0 1-.085-.368c0-.135.03-.258.089-.368a.842.842 0 0 1 .25-.286c.107-.08.234-.142.379-.185.147-.043.309-.065.484-.065.24 0 .449.043.627.129s.317.205.415.355c.1.15.15.322.15.516h-.665a.503.503 0 0 0-.06-.25.409.409 0 0 0-.179-.172.634.634 0 0 0-.299-.063.686.686 0 0 0-.29.054.386.386 0 0 0-.174.141.342.342 0 0 0-.058.196c0 .055.013.105.04.15.028.045.07.086.125.125s.123.075.203.109c.08.034.173.068.279.1.177.054.333.114.467.181.135.067.249.142.339.225s.159.178.205.283a.891.891 0 0 1 .069.359.781.781 0 0 1-.322.662c-.104.077-.228.136-.373.176s-.306.06-.484.06c-.161 0-.319-.021-.475-.063a1.449 1.449 0 0 1-.426-.194c-.127-.086-.228-.196-.304-.33s-.114-.292-.114-.475h.672c0 .101.016.187.047.257s.075.127.132.17a.585.585 0 0 0 .205.094c.08.019.168.029.263.029a.713.713 0 0 0 .286-.049.349.349 0 0 0 .223-.332z"/>
    </symbol>
    <symbol id="icon-company-4" viewBox="10 8 54 52">
      <path d="M4.868 47.617c.249.278.382.626.375.983.013.233-.033.465-.134.68s-.254.407-.448.561a2.723 2.723 0 0 1-1.69.453H0v-6.23h2.911a2.692 2.692 0 0 1 1.613.414c.188.142.337.321.435.523s.142.422.13.643a1.35 1.35 0 0 1-.338.953 1.614 1.614 0 0 1-.886.487c.394.065.75.253 1.004.532zm-3.485-.94h1.244c.283.019.564-.055.791-.207.093-.076.166-.171.212-.276s.065-.219.055-.332c.009-.113-.01-.226-.056-.331s-.117-.2-.208-.278a1.3 1.3 0 0 0-.815-.21H1.382v1.634zm2.156 2.389c.1-.078.178-.176.229-.285s.073-.229.065-.347c.008-.12-.016-.24-.068-.351s-.132-.209-.233-.288a1.39 1.39 0 0 0-.845-.225H1.382v1.713h1.322c.297.015.592-.061.835-.216zM10.818 50.295 9.199 47.86h-.608v2.435H7.198v-6.23h2.637a2.794 2.794 0 0 1 1.836.53c.369.338.591.784.627 1.256s-.117.941-.431 1.322c-.325.335-.77.559-1.258.633l1.724 2.489h-1.514zM8.59 47.011h1.139c.791 0 1.187-.315 1.187-.943.008-.129-.014-.257-.064-.377s-.127-.23-.227-.323a1.331 1.331 0 0 0-.896-.253H8.576l.014 1.896zM18.431 49.041h-2.775l-.49 1.254h-1.46l2.549-6.16h1.579l2.539 6.16h-1.46l-.48-1.254zm-.372-.943-1.014-2.63-1.014 2.63h2.028zM27.96 50.295h-1.383l-3.1-4.236v4.236h-1.379v-6.23h1.379l3.1 4.261v-4.261h1.383v6.23zM35.85 48.804c-.286.47-.721.853-1.251 1.099a4.448 4.448 0 0 1-1.944.393h-2.461v-6.23h2.461a4.551 4.551 0 0 1 1.944.383c.529.24.965.619 1.251 1.087.285.507.433 1.066.433 1.634s-.148 1.128-.433 1.634zm-1.582-.149c.395-.414.612-.941.612-1.487s-.217-1.073-.612-1.487a2.58 2.58 0 0 0-1.731-.53h-.96v4.032h.96a2.578 2.578 0 0 0 1.731-.529zM19.296 9.414s17.846 6.065 17.467 14.842v14.845s-17.832-6.068-17.46-14.845l-.007-14.842zM52.662 35.626c3.37-2.088 7.269-3.381 11.338-3.762v-4.647c-4.689 1.627-8.667 4.577-11.338 8.409z"/>
      <path d="M50.637 37.026c2.758-5.001 7.541-8.859 13.363-10.783V12.852s-25.415 8.64-24.877 21.139v21.136s1.133-.387 2.914-1.111c0-.676 0-1.357.081-2.042.526-5.803 3.59-11.18 8.519-14.949z"/>
      <path d="M48.22 44.878c.133-1.466.431-2.916.889-4.328-3.069 3.255-4.928 7.294-5.314 11.549-.037.402-.057.803-.068 1.217a77.065 77.065 0 0 0 4.888-2.319 19.746 19.746 0 0 1-.396-6.12zM49.23 44.954a18.895 18.895 0 0 0 .314 5.542c6.944-3.74 14.746-9.52 14.445-16.504v-.609c-4.961.5-9.602 2.452-13.211 5.557a19.095 19.095 0 0 0-1.548 6.014z"/>
    </symbol>
    <symbol id="icon-company-5" viewBox="13 13 38 38">
      <path d="M32.36 31.281a2.014 2.014 0 0 1-.413-1.356v-1.966c0-.603.137-1.061.41-1.374s.743-.469 1.409-.468c.626 0 1.07.133 1.333.4.287.34.426.756.394 1.176v.462h-1.12v-.468a2.428 2.428 0 0 0-.032-.458.439.439 0 0 0-.16-.272.649.649 0 0 0-.406-.106.682.682 0 0 0-.426.112.519.519 0 0 0-.185.3c-.032.16-.047.323-.044.486v2.386c-.018.23.032.461.144.67.056.071.133.127.223.162s.19.048.289.038a.612.612 0 0 0 .396-.108.48.48 0 0 0 .167-.29 2.64 2.64 0 0 0 .035-.478v-.484h1.12v.442c.031.438-.105.872-.387 1.236-.257.292-.696.438-1.34.438s-1.131-.156-1.407-.48zM37.022 31.301c-.283-.306-.424-.752-.424-1.342v-2.068c0-.584.141-1.026.424-1.326s.756-.449 1.419-.448c.658 0 1.129.149 1.412.448.283.3.427.742.427 1.326v2.068c0 .584-.144 1.032-.431 1.34s-.756.462-1.407.462-1.134-.156-1.419-.46zm1.94-.497c.101-.192.147-.402.134-.612V27.66a1.123 1.123 0 0 0-.132-.6c-.057-.072-.136-.13-.229-.165s-.195-.048-.295-.035c-.101-.012-.203 0-.296.036s-.173.092-.23.165a1.095 1.095 0 0 0-.134.6v2.544c-.014.21.032.421.134.612.065.064.146.116.236.152s.188.054.288.054.197-.018.288-.054a.685.685 0 0 0 .236-.152v-.012zM41.626 26.176h1.205l.906 3.816.927-3.816h1.173l.118 5.508h-.867l-.093-3.828-.895 3.828h-.696l-.927-3.842-.086 3.842h-.876l.109-5.508zM47.307 26.176h1.878c1.082 0 1.623.521 1.623 1.564 0 .999-.569 1.497-1.708 1.496h-.64v2.448h-1.159l.007-5.508zm1.605 2.354c.114.012.231.003.341-.027s.211-.08.297-.148a.894.894 0 0 0 .167-.622 1.726 1.726 0 0 0-.056-.5c-.017-.055-.046-.106-.085-.151s-.09-.083-.147-.111a1.193 1.193 0 0 0-.517-.088h-.45v1.646h.45zM52.479 26.176h1.245l1.277 5.508h-1.08l-.253-1.27h-1.11l-.26 1.27h-1.096l1.277-5.508zm1.064 3.6-.434-2.312-.434 2.312h.867zM56.033 26.176h.811l1.553 3.142v-3.142h.962v5.508h-.772l-1.562-3.28v3.28h-.994l.002-5.508zM61.612 29.584l-1.291-3.4h1.087l.788 2.184.739-2.184h1.064l-1.275 3.4v2.1h-1.113v-2.1zM34.15 34.093v.288h-.946v2.238h-.396v-2.238h-.95v-.288h2.293zM37.115 36.619h-.306a.135.135 0 0 1-.086-.024.135.135 0 0 1-.051-.058l-.274-.6h-1.312l-.273.6a.168.168 0 0 1-.042.068.142.142 0 0 1-.086.024h-.306l1.159-2.526h.403l1.173 2.516zm-1.92-.938h1.094l-.464-1.028a1.88 1.88 0 0 1-.086-.238l-.044.134-.042.106-.459 1.026zM39.113 36.371c.073.003.145.003.218 0a1.4 1.4 0 0 0 .185-.03c.057-.012.113-.027.167-.046.051-.018.102-.04.155-.062v-.568h-.464c-.011.001-.023-.001-.034-.004s-.021-.009-.029-.016c-.008-.006-.014-.013-.018-.021s-.006-.017-.005-.025v-.194h.899v.968a1.813 1.813 0 0 1-.489.206 2.174 2.174 0 0 1-.29.052 3.46 3.46 0 0 1-.338.016c-.2.002-.398-.03-.584-.094a1.436 1.436 0 0 1-.464-.264 1.214 1.214 0 0 1-.299-.4 1.27 1.27 0 0 1-.107-.524c-.002-.18.033-.359.104-.528.067-.15.169-.286.299-.4.132-.114.29-.203.464-.262.199-.065.409-.096.621-.094.108 0 .216.007.322.022.094.013.187.035.276.064.081.026.159.06.232.1.071.039.139.084.202.132l-.111.156a.107.107 0 0 1-.091.048.158.158 0 0 1-.072-.02 1.444 1.444 0 0 1-.114-.06 1.025 1.025 0 0 0-.155-.068 1.39 1.39 0 0 0-.507-.078 1.371 1.371 0 0 0-.447.07.994.994 0 0 0-.341.2.898.898 0 0 0-.216.314 1.175 1.175 0 0 0 0 .842.98.98 0 0 0 .57.518c.147.044.304.061.459.05zM42.808 36.331h1.266v.288h-1.653v-2.526h.396l-.009 2.238zM45.39 36.619h-.396v-2.526h.396v2.526zM46.865 34.105a.196.196 0 0 1 .06.046l1.694 1.904a.676.676 0 0 1 0-.09V34.083h.345v2.536h-.199a.193.193 0 0 1-.086-.014.25.25 0 0 1-.063-.048l-1.692-1.902v1.964h-.331v-2.526h.206c.022 0 .044.004.065.012zM51.883 34.093v.278h-1.405v.834h1.138v.268h-1.138v.862h1.405v.278H50.07v-2.52h1.813zM10.346 18.491l17.601 4.313v15.112l-17.601-4.311V18.491zm-1.129-1.288v17.136l19.857 4.867V22.072L9.217 17.203z"/>
      <path d="M19.859 47.16 0 42.289V25.155l19.859 4.869V47.16z"/>
      <path d="m9.546 18.297 17.372 4.258-7.388 6.377-17.374-4.261 7.39-6.375zm-.329-1.094L0 25.156l19.859 4.869 9.214-7.953-19.857-4.869zM20.976 46.196l8.097-6.989-8.097-1.986v8.975z"/>
    </symbol>
    <symbol id="icon-company-6" viewBox="0 0 64 64">
      <path d="m12.255 0 9.543 9.091L4.085 9.08v44.109h46.298V36.324l9.532 9.081V-.001h-47.66zm37.709 35.257L22.907 9.48h27.057v25.777zm-8.401 11.48H11.411V17.072h2.131v27.656h28.021v2.009zM17.424 61.36 16.3 59.049h-.928l1.629 3.059v1.782h.841v-1.782l1.629-3.059h-.924l-1.124 2.311zm4.143-2.311h.2l1.828 4.84h-.878l-.392-1.134h-1.874l-.391 1.134h-.874l1.822-4.84h.559zm-.888 3.046h1.417l-.709-2.053-.708 2.053zm5.85-.803a5.06 5.06 0 0 1-.105-.136 2.448 2.448 0 0 1-.289-.475 1.167 1.167 0 0 1-.103-.479c0-.253.052-.47.156-.652s.252-.321.442-.419c.191-.1.413-.15.668-.15.246 0 .458.05.635.15a1.033 1.033 0 0 1 .558.921c0 .153-.028.293-.083.419s-.132.242-.229.346c-.098.104-.21.203-.339.296l-.336.245.959 1.131a1.956 1.956 0 0 0 .209-.904h.692c0 .235-.023.458-.07.668a2.05 2.05 0 0 1-.353.799l.709.837h-.927l-.281-.331a1.862 1.862 0 0 1-.497.271 2.213 2.213 0 0 1-.751.126c-.322 0-.6-.059-.834-.176s-.417-.279-.545-.485a1.33 1.33 0 0 1-.19-.708c0-.197.041-.37.123-.519.082-.151.194-.29.336-.419.131-.119.28-.238.448-.356zm.397.487-.1.073a1.253 1.253 0 0 0-.263.276.82.82 0 0 0-.137.432c0 .142.03.27.09.386a.706.706 0 0 0 .269.276c.12.066.265.1.436.1.184 0 .362-.041.535-.123.087-.042.169-.093.246-.153l-1.077-1.267zm.191-.884.297-.2c.14-.093.239-.184.299-.273a.603.603 0 0 0 .09-.339c0-.115-.044-.222-.133-.319s-.214-.146-.376-.146a.484.484 0 0 0-.462.286.71.71 0 0 0 .02.592c.051.104.121.214.209.329l.056.07zm8.469 1.419h-.831a1.486 1.486 0 0 1-.153.535.748.748 0 0 1-.336.329c-.146.075-.338.113-.575.113-.195 0-.362-.039-.502-.116s-.255-.187-.346-.329a1.606 1.606 0 0 1-.199-.509 3.238 3.238 0 0 1-.063-.665v-.409c0-.257.023-.485.07-.685.049-.202.121-.371.216-.509s.214-.242.356-.312c.142-.071.308-.106.499-.106.233 0 .421.04.565.12a.758.758 0 0 1 .326.339c.075.149.124.327.146.535h.831a2.069 2.069 0 0 0-.273-.861c-.146-.25-.352-.447-.618-.588s-.592-.213-.977-.213c-.304 0-.577.053-.821.16-.242.106-.449.26-.622.462-.173.199-.306.44-.399.721a3.057 3.057 0 0 0-.136.944v.402c0 .348.044.663.133.944.091.281.222.522.392.721.171.197.376.35.615.459.239.106.509.16.808.16.39 0 .721-.071.994-.213s.484-.336.635-.582a1.92 1.92 0 0 0 .266-.848zm4.617-.712v-.266c0-.366-.049-.693-.146-.981a2.126 2.126 0 0 0-.409-.741 1.745 1.745 0 0 0-.635-.469 2.015 2.015 0 0 0-.818-.163c-.297 0-.569.054-.814.163a1.767 1.767 0 0 0-.635.469 2.164 2.164 0 0 0-.412.741 3.066 3.066 0 0 0-.146.981v.266c0 .366.049.694.146.984.1.29.239.537.419.741s.391.36.635.469c.246.106.518.16.815.16.299 0 .572-.053.818-.16.246-.109.457-.265.632-.469.177-.204.314-.451.409-.741s.143-.618.143-.984zm-.834-.272v.273c0 .27-.027.51-.08.718a1.58 1.58 0 0 1-.226.529.994.994 0 0 1-.366.322 1.105 1.105 0 0 1-.495.106c-.184 0-.348-.035-.492-.106a1.054 1.054 0 0 1-.372-.322c-.102-.144-.179-.32-.233-.529s-.08-.448-.08-.718v-.273c0-.27.027-.509.08-.715.053-.208.13-.382.229-.522a.992.992 0 0 1 .369-.319c.144-.073.308-.11.492-.11s.349.037.495.11a.962.962 0 0 1 .369.319c.102.14.178.314.229.522.053.206.08.444.08.715z"/>
    </symbol>
    <symbol id="icon-facebook" viewBox="0 0 64 64">
      <path d="M42.659 10.626h5.843V.45c-1.008-.139-4.475-.451-8.512-.451-8.424 0-14.195 5.299-14.195 15.037v8.963h-9.296v11.376h9.296v28.624h11.397V35.378h8.92l1.416-11.376H37.189v-7.837c.003-3.288.888-5.539 5.469-5.539z"/>
    </symbol>
    <symbol id="icon-instagram" viewBox="0 0 64 64">
      <path d="M63.937 18.816c-.15-3.401-.7-5.738-1.488-7.764a15.63 15.63 0 0 0-3.701-5.676 15.747 15.747 0 0 0-5.664-3.688C51.046.9 48.721.35 45.32.2 41.894.037 40.806 0 32.117 0s-9.777.038-13.19.188c-3.401.15-5.738.7-7.764 1.488a15.614 15.614 0 0 0-5.676 3.701 15.747 15.747 0 0 0-3.688 5.664C1.011 13.079.461 15.404.311 18.805c-.163 3.426-.2 4.514-.2 13.203s.038 9.777.188 13.19c.15 3.4.7 5.738 1.488 7.764a15.79 15.79 0 0 0 3.7 5.676 15.747 15.747 0 0 0 5.664 3.688c2.038.788 4.363 1.338 7.764 1.488 3.413.151 4.501.188 13.19.188s9.777-.037 13.19-.188c3.4-.15 5.738-.7 7.764-1.488a16.37 16.37 0 0 0 9.365-9.364c.787-2.038 1.338-4.364 1.488-7.764.15-3.414.188-4.501.188-13.19s-.013-9.777-.163-13.19zm-5.763 26.13c-.138 3.126-.663 4.814-1.1 5.939a10.617 10.617 0 0 1-6.076 6.076c-1.125.438-2.825.963-5.939 1.1-3.376.15-4.388.187-12.927.187s-9.564-.037-12.928-.187c-3.126-.137-4.813-.662-5.939-1.1a9.86 9.86 0 0 1-3.675-2.388 9.948 9.948 0 0 1-2.388-3.676c-.438-1.125-.963-2.826-1.1-5.939-.15-3.376-.188-4.388-.188-12.928s.037-9.564.188-12.927c.137-3.126.662-4.813 1.1-5.939a9.726 9.726 0 0 1 2.401-3.676A9.936 9.936 0 0 1 13.278 7.1c1.125-.438 2.826-.963 5.939-1.1 3.376-.15 4.389-.188 12.927-.188 8.552 0 9.564.038 12.928.188 3.126.138 4.814.663 5.939 1.1a9.847 9.847 0 0 1 3.676 2.388 9.96 9.96 0 0 1 2.388 3.676c.438 1.125.962 2.825 1.1 5.939.15 3.376.188 4.388.188 12.927s-.038 9.539-.188 12.915z"/>
      <path d="M32.119 15.565c-9.076 0-16.441 7.364-16.441 16.441s7.364 16.441 16.441 16.441c9.077 0 16.441-7.364 16.441-16.441s-7.364-16.441-16.441-16.441zm0 27.105c-5.888 0-10.665-4.776-10.665-10.665S26.23 21.34 32.119 21.34c5.889 0 10.664 4.776 10.664 10.665S38.007 42.67 32.118 42.67zM53.048 14.915a3.838 3.838 0 1 1-7.675 0 3.838 3.838 0 0 1 7.675 0z"/>
    </symbol>
    <symbol id="icon-linkedin" viewBox="0 0 64 64">
      <path d="M63.984 64v-.003H64V40.525c0-11.483-2.472-20.328-15.896-20.328-6.453 0-10.784 3.541-12.552 6.899h-.187v-5.827H22.637v42.728H35.89V42.84c0-5.571 1.056-10.957 7.955-10.957 6.798 0 6.899 6.357 6.899 11.315v20.803h13.24zM1.056 21.271h13.269v42.728H1.056V21.271zM7.686-.001C3.443-.001.001 3.442.001 7.684s3.443 7.757 7.685 7.757c4.243 0 7.685-3.515 7.685-7.757-.003-4.243-3.445-7.685-7.685-7.685z"/>
    </symbol>
    <symbol id="icon-twitter" viewBox="0 0 64 64">
      <path d="M64 12.155a27.355 27.355 0 0 1-7.56 2.072 13.047 13.047 0 0 0 5.772-7.252 26.22 26.22 0 0 1-8.32 3.176 13.148 13.148 0 0 0-9.584-4.152c-7.264 0-13.112 5.896-13.112 13.124 0 1.04.088 2.04.304 2.992-10.908-.532-20.56-5.76-27.044-13.724-1.132 1.964-1.796 4.212-1.796 6.632 0 4.544 2.34 8.572 5.828 10.904-2.108-.04-4.176-.652-5.928-1.616v.144c0 6.376 4.548 11.672 10.512 12.892-1.068.292-2.232.432-3.44.432-.84 0-1.688-.048-2.484-.224 1.7 5.196 6.524 9.016 12.26 9.14A26.363 26.363 0 0 1 3.14 52.291c-1.076 0-2.108-.048-3.14-.18 5.812 3.748 12.7 5.888 20.128 5.888 24.144 0 37.344-20 37.344-37.336 0-.58-.02-1.14-.048-1.696 2.604-1.848 4.792-4.156 6.576-6.812z"/>
    </symbol>
    <symbol id="icon-antenna" viewBox="0 0 64 64">
      <path fill="#2e2f42" d="M61.546 44.195 44.66 27.185l1.874-9.231c.484.189.998.288 1.517.291h.013a4.319 4.319 0 1 0-4.018-2.871l-9.92 1.211L17.945.319a1.063 1.063 0 0 0-.753-.32c-.28.001-.548.113-.747.31L13.42 3.317a1.067 1.067 0 0 0 0 1.508l1.628 1.651a29.885 29.885 0 0 0 5.039 35.326.99.99 0 0 0 .292.195 6.276 6.276 0 0 0-.105 1.094v12.373h-12.8a5.339 5.339 0 0 0-5.333 5.333v2.133c0 .589.478 1.067 1.067 1.067h49.067c.589 0 1.067-.478 1.067-1.067v-2.133a5.34 5.34 0 0 0-5.333-5.333h-12.8V49.98c2.005.421 4.048.635 6.097.64a29.697 29.697 0 0 0 14.08-3.567l1.636 1.646c.199.203.469.318.753.32.28-.002.548-.113.747-.31l3.025-3.008a1.067 1.067 0 0 0 0-1.508zM46.56 12.466a2.134 2.134 0 1 1 1.504 3.646h-.006a2.133 2.133 0 0 1-1.493-3.646h-.004zm-2.511 7.009-1.197 5.891-2.351-2.365 3.548-3.526zm-1.212-1.803-3.84 3.818-2.971-2.987 6.811-.831zM48.008 57.6a3.2 3.2 0 0 1 3.2 3.2v1.067H4.275V60.8a3.2 3.2 0 0 1 3.2-3.2h40.533zm-14.933-4.267v2.133H22.408v-2.133h10.667zM22.408 51.2v-8.107c0-2.588 2.393-4.693 5.333-4.693s5.333 2.106 5.333 4.693V51.2H22.407zm12.8-3.392v-4.715c0-3.764-3.349-6.827-7.467-6.827a7.6 7.6 0 0 0-6.562 3.572 27.739 27.739 0 0 1-4.557-31.774l37.204 37.417a27.643 27.643 0 0 1-18.618 2.326zm22.578-1.367L15.672 4.079l1.509-1.504 15.87 15.96c.008 0 .012.014.019.019l26.229 26.383-1.514 1.504z" style="fill:var(--color1, #2e2f42)"/>
      <path fill="#4d5ae5" d="M27.751 40.533h-.01a3.2 3.2 0 0 0-.01 6.4h.01a3.2 3.2 0 0 0 .01-6.4zm.747 3.957a1.066 1.066 0 1 1-.756-1.823 1.067 1.067 0 0 1 .747 1.823h.01z" style="fill:var(--color2, #4d5ae5)"/>
    </symbol>
    <symbol id="icon-astronaut" viewBox="0 0 64 64">
      <path fill="#4d5ae5" d="M63.948 9.048a1.067 1.067 0 0 0-.861-.725l-3.821-.556-1.71-3.462c-.358-.73-1.554-.73-1.913 0l-1.71 3.462-3.821.556a1.066 1.066 0 0 0-.592 1.818l2.766 2.696-.653 3.806c-.068.4.096.804.423 1.043.332.241.765.271 1.124.081l3.418-1.797 3.418 1.797a1.072 1.072 0 0 0 1.124-.081c.328-.239.493-.643.423-1.043l-.653-3.806 2.766-2.696a1.07 1.07 0 0 0 .27-1.093zm-4.926 2.654a1.064 1.064 0 0 0-.306.944l.382 2.228-2.001-1.052a1.066 1.066 0 0 0-.994 0l-2.001 1.052.382-2.228a1.068 1.068 0 0 0-.306-.944l-1.62-1.579 2.238-.325c.348-.05.648-.269.803-.584L56.6 7.187l1.001 2.027c.156.315.456.533.803.584l2.238.325-1.618 1.579zM52.267 41.044h-2.133v2.133h2.133v-2.133zM52.267 45.311h-2.133v2.133h2.133v-2.133zM54.4 43.178h-2.133v2.133H54.4v-2.133zM50.134 43.178h-2.133v2.133h2.133v-2.133zM44.8 52.778h-2.133v2.133H44.8v-2.133zM44.8 57.045h-2.133v2.133H44.8v-2.133zM46.934 54.911h-2.133v2.133h2.133v-2.133zM42.667 54.911h-2.133v2.133h2.133v-2.133zM32 48.511h-2.133v2.133H32v-2.133zM32 52.778h-2.133v2.133H32v-2.133zM34.133 50.645H32v2.133h2.133v-2.133zM29.867 50.645h-2.133v2.133h2.133v-2.133zM11.733 12.244H9.6v2.133h2.133v-2.133zM11.733 16.511H9.6v2.133h2.133v-2.133zM13.866 14.377h-2.133v2.133h2.133v-2.133zM9.6 14.377H7.467v2.133H9.6v-2.133z" style="fill:var(--color2, #4d5ae5)"/>
      <path fill="#2e2f42" d="M49.429 28.319a3.545 3.545 0 0 0-2.377-1.409 3.552 3.552 0 0 0-2.68.704l-2.505 1.92-3.795 2.834-2.716-1.082c4.843-2.173 8.227-7.017 8.227-12.64 0-7.646-6.245-13.867-13.922-13.867S15.739 11 15.739 18.646c0 2.771.829 5.348 2.24 7.517l-5.528-.048h-.01c-.017 0-.031.009-.047.01a1.036 1.036 0 0 0-.31.062c-.026.01-.052.015-.077.027-.013.005-.026.006-.038.013L5.503 29.42l-.002.001-3.787 1.821a.881.881 0 0 0-.126.07 3.561 3.561 0 0 0-1.197 4.591 3.55 3.55 0 0 0 2.112 1.778 3.565 3.565 0 0 0 2.757-.257l2.776-1.476 4.528-2.338 2.714-.016L4.395 44.425l-.003.002-2.677 2.667a3.3 3.3 0 0 0-.98 2.355c0 .89.348 1.727.98 2.357.65.646 1.504.971 2.358.971a3.34 3.34 0 0 0 2.361-.971l2.628-2.618 3.482-2.599 1.802 1.794-3.523 3.508-.003.002-2.677 2.667a3.296 3.296 0 0 0-.98 2.355c0 .89.348 1.727.98 2.357.65.646 1.505.971 2.36.971s1.71-.324 2.361-.971l6.963-6.933.002-.003 2.019-2-.008-.008c.013-.013.031-.017.044-.031l10.332-11.316 6.942.988a.947.947 0 0 0 .524-.066c.035-.013.066-.03.099-.047.038-.019.079-.03.115-.054l6.427-4.267c.023-.016.036-.042.059-.059.026-.02.058-.029.081-.051l2.543-2.382a3.558 3.558 0 0 0 .424-4.724zM4.261 35.54c-.347.186-.74.223-1.117.103a1.428 1.428 0 0 1-.424-2.52l2.627-1.264.898 2.625-1.984 1.055zm6.994-3.655-3.097 1.6-.878-2.567 4.053-2.001-.079 2.968zm30.199-13.241c0 1.837-.438 3.569-1.198 5.119l-8.363-3.798a3.725 3.725 0 0 0-1.577-2.776l2.928-9.721c4.755 1.513 8.209 5.949 8.209 11.176zm-23.578 0c0-6.469 5.289-11.733 11.789-11.733.506 0 1 .043 1.49.104l-2.864 9.507c-.038-.001-.075-.012-.114-.012-2.065 0-3.745 1.675-3.745 3.733s1.68 3.733 3.745 3.733c1.389 0 2.589-.767 3.236-1.889l7.725 3.509c-2.149 2.893-5.589 4.78-9.473 4.78-6.5 0-11.789-5.264-11.789-11.734zm11.913 1.6c0 .882-.723 1.6-1.612 1.6s-1.612-.718-1.612-1.6c0-.882.723-1.6 1.612-1.6s1.612.718 1.612 1.6zM4.93 50.292a1.217 1.217 0 0 1-1.709.001 1.189 1.189 0 0 1 0-1.689l1.924-1.917 1.702 1.695-1.918 1.909zm6.427 7.467a1.217 1.217 0 0 1-1.71.001 1.189 1.189 0 0 1 0-1.689l1.925-1.918 1.704 1.695-1.919 1.91zm6.964-6.937-.003.002-3.53 3.52-1.704-1.695 3.527-3.51v-.001l.003-.002c.08-.08.13-.176.179-.271.014-.028.041-.051.052-.08.033-.082.038-.171.051-.257.006-.049.028-.095.028-.145 0-.072-.026-.141-.041-.211-.013-.064-.013-.129-.037-.191-.041-.1-.11-.189-.182-.275-.02-.023-.028-.053-.05-.076h-.001l-.002-.004-3.214-3.2c-.034-.034-.078-.048-.116-.077a.989.989 0 0 0-.174-.115.987.987 0 0 0-.187-.065 1.013 1.013 0 0 0-.206-.039 1.02 1.02 0 0 0-.191.01.982.982 0 0 0-.208.041.934.934 0 0 0-.189.09c-.04.022-.084.03-.122.058l-3.547 2.648-1.802-1.794 4.798-4.772 8.721 8.577-1.855 1.838zm13.637-14.034c-.031-.004-.06.008-.091.005a1.046 1.046 0 0 0-.23.014.983.983 0 0 0-.369.137.99.99 0 0 0-.166.123c-.026.022-.056.033-.08.059l-9.397 10.291-8.656-8.513 5.666-5.636a1.067 1.067 0 0 0-.76-1.822v-.001l-4.437.027.056-3.215 6.208.053a13.897 13.897 0 0 0 9.963 4.202c.875 0 1.728-.091 2.559-.245.08.064.159.129.259.17l4.819 1.92.305 1.517.356 1.771-6.005-.854zm8.083.357-.626-3.116 2.893-2.16 1.893 2.513-4.16 2.763zm7.507-5.662-1.676 1.57-1.862-2.473 1.663-1.275c.31-.239.702-.336 1.086-.286.386.054.727.256.96.569a1.428 1.428 0 0 1-.171 1.894z" style="fill:var(--color1, #2e2f42)"/>
      <path fill="#2e2f42" d="m27.204 37.088-4.286-4.267a1.065 1.065 0 0 0-1.505 0l-4.285 4.267a1.07 1.07 0 0 0 0 1.512l4.285 4.267a1.065 1.065 0 0 0 1.505 0l4.286-4.267a1.067 1.067 0 0 0 0-1.512zm-5.038 3.518-2.773-2.762 2.773-2.762 2.774 2.762-2.774 2.762zM34.328 10.142l-.515 2.072c.142.035 3.475.903 3.475 4.298h2.133c0-4.034-3.331-5.931-5.093-6.369zM39.422 18.644h-2.133v2.134h2.133v-2.134z" style="fill:var(--color1, #2e2f42)"/>
    </symbol>
    <symbol id="icon-clock" viewBox="0 0 64 64">
      <path fill="#2e2f42" d="M62.593 30.602C62.59 13.697 48.882-.004 31.977 0S1.371 13.711 1.375 30.616a30.609 30.609 0 0 0 21.299 29.152c.121.038.247.058.374.057.241-.001.477-.065.685-.188.27-.16.472-.414.566-.713l7.73-24.5a3.826 3.826 0 0 0-.04-7.653 3.763 3.763 0 0 0-1.64.383L20.137 16.941a1.276 1.276 0 0 0-1.803 1.804L28.54 28.963a3.753 3.753 0 0 0 1.073 4.618l-7.365 23.346C7.692 51.565.239 35.419 5.601 20.864S27.109-1.145 41.664 4.217C56.22 9.579 63.673 25.725 58.311 40.28a28.092 28.092 0 0 1-14.924 15.947l-.796-3.748a1.275 1.275 0 0 0-2.097-.687l-7.674 6.851a1.276 1.276 0 0 0 .461 2.169l9.797 3.127a1.275 1.275 0 0 0 1.638-1.479l-.782-3.678a30.51 30.51 0 0 0 18.658-28.178zm-30.609-1.275a1.275 1.275 0 1 1 0 2.55 1.275 1.275 0 0 1 0-2.55zm4.201 29.728 4.368-3.897 1.206 5.681-5.574-1.784z" style="fill:var(--color1, #2e2f42)"/>
      <path fill="#4d5ae5" d="M30.709 6.37v2.551a1.275 1.275 0 1 0 2.55 0V6.37a1.275 1.275 0 0 0-2.55 0zM7.752 29.327a1.275 1.275 0 1 0 0 2.55h2.551a1.275 1.275 0 1 0 0-2.55H7.752zM56.216 31.878a1.275 1.275 0 1 0 0-2.55h-2.551a1.275 1.275 0 0 0 0 2.55h2.551z" style="fill:var(--color2, #4d5ae5)"/>
    </symbol>
    <symbol id="icon-diagram" viewBox="0 0 64 64">
      <path fill="#4d5ae5" d="M29.851 29.929h2.132v9.595h-2.132v-9.595zM38.38 34.194h2.132v5.331H38.38v-5.331zM21.322 37.392h2.132v2.132h-2.132v-2.132zM14.925 36.326h2.132v3.198h-2.132v-3.198z" style="fill:var(--color2, #4d5ae5)"/>
      <path fill="#2e2f42" d="M3.198 56.582h51.173a3.198 3.198 0 0 0 3.198-3.198V49.12a3.198 3.198 0 0 0-3.198-3.198h-1.066V19.335l6.056-5.737a3.216 3.216 0 1 0-1.494-1.526l-4.563 4.325v-2.46a3.198 3.198 0 0 0-3.198-3.198H7.462a3.198 3.198 0 0 0-3.198 3.198V45.92H3.198A3.198 3.198 0 0 0 0 49.118v4.264a3.198 3.198 0 0 0 3.198 3.198zm57.57-46.909a1.066 1.066 0 1 1 0 2.131 1.066 1.066 0 0 1 0-2.131zM6.397 13.938c0-.589.477-1.066 1.066-1.066h42.644c.589 0 1.066.477 1.066 1.066v4.477l-2.132 2.026V16.07c0-.589-.477-1.066-1.066-1.066H9.595c-.589 0-1.066.477-1.066 1.066v26.653c0 .589.477 1.066 1.066 1.066h38.38c.589 0 1.066-.477 1.066-1.066V23.374l2.132-2.02v24.567H6.396V13.938zm9.595 13.859a3.197 3.197 0 1 0 2.214 5.496l3.706 1.859c.43.215.953.114 1.273-.245l7.878-8.863 7.744 5.803c.415.311.995.278 1.372-.079l6.73-6.375v16.262H10.661v-24.52h36.248v5.321l-7.543 7.143-7.809-5.854a1.066 1.066 0 0 0-1.436.144l-7.986 8.985-2.985-1.493c.022-.128.035-.257.041-.387a3.198 3.198 0 0 0-3.198-3.198zm1.066 3.198a1.066 1.066 0 1 1-2.131 0 1.066 1.066 0 0 1 2.131 0zm6.396 17.058h10.661v1.066c0 .589-.477 1.066-1.066 1.066H24.52a1.066 1.066 0 0 1-1.066-1.066v-1.066zM2.132 49.119c0-.589.477-1.066 1.066-1.066h18.124v1.066a3.198 3.198 0 0 0 3.198 3.198h8.529a3.198 3.198 0 0 0 3.198-3.198v-1.066h18.124c.589 0 1.066.477 1.066 1.066v4.264c0 .589-.477 1.066-1.066 1.066H3.198a1.066 1.066 0 0 1-1.066-1.066v-4.264z" style="fill:var(--color1, #2e2f42)"/>
    </symbol>
    <symbol id="icon-check" viewBox="0 0 80 64">
      <path d="M67.565 2.040c1.382-1.323 3.222-2.055 5.131-2.040s3.737 0.774 5.099 2.118c1.362 1.344 2.152 3.168 2.203 5.086s-0.642 3.781-1.932 5.196l-39.157 49.234c-0.673 0.729-1.486 1.314-2.389 1.721s-1.879 0.625-2.868 0.643c-0.989 0.018-1.972-0.164-2.89-0.536s-1.751-0.927-2.451-1.63l-25.967-26.107c-0.723-0.677-1.303-1.494-1.705-2.402s-0.619-1.888-0.636-2.881 0.164-1.981 0.535-2.902c0.37-0.921 0.921-1.759 1.62-2.461s1.531-1.257 2.448-1.629 1.898-0.555 2.886-0.537c0.988 0.017 1.963 0.235 2.866 0.639s1.715 0.988 2.389 1.715l20.55 20.651 34.083-43.66c0.061-0.076 0.127-0.148 0.196-0.217h-0.010z"></path>
    </symbol>	
  </defs>
</svg>
